<?xml version="1.0" encoding="UTF-8" standalone="no"?>
<!-- Created with Inkscape (http://www.inkscape.org/) -->

<svg
   width="92.579514mm"
   height="101.52007mm"
   viewBox="0 0 92.579514 101.52007"
   version="1.1"
   id="svg1"
   xml:space="preserve"
   sodipodi:docname="snöflinga_vit.svg"
   inkscape:version="1.3.2 (091e20e, 2023-11-25, custom)"
   xmlns:inkscape="http://www.inkscape.org/namespaces/inkscape"
   xmlns:sodipodi="http://sodipodi.sourceforge.net/DTD/sodipodi-0.dtd"
   xmlns="http://www.w3.org/2000/svg"
   xmlns:svg="http://www.w3.org/2000/svg"><sodipodi:namedview
     id="namedview1"
     pagecolor="#ffffff"
     bordercolor="#000000"
     borderopacity="0.25"
     inkscape:showpageshadow="2"
     inkscape:pageopacity="0.0"
     inkscape:pagecheckerboard="0"
     inkscape:deskcolor="#d1d1d1"
     inkscape:document-units="mm"
     showgrid="false"
     inkscape:zoom="2.3703543"
     inkscape:cx="295.10356"
     inkscape:cy="220.85306"
     inkscape:window-width="3840"
     inkscape:window-height="2054"
     inkscape:window-x="-11"
     inkscape:window-y="-11"
     inkscape:window-maximized="1"
     inkscape:current-layer="layer1" /><defs
     id="defs1" /><g
     inkscape:label="Layer 1"
     inkscape:groupmode="layer"
     id="layer1"
     transform="translate(-89.997683,-155.94279)"><path
       style="fill:#ffffff;fill-opacity:1"
       d="m 134.72103,257.11349 c -0.50437,-0.25954 -1.15921,-0.88861 -1.45521,-1.39794 -0.5112,-0.87964 -0.53411,-1.28603 -0.45729,-8.11122 0.0445,-3.95185 -0.0238,-7.2499 -0.15182,-7.32899 -0.12798,-0.0791 -1.54391,1.1509 -3.14652,2.73332 -3.04756,3.00917 -3.89748,3.47891 -5.54595,3.06517 -1.75304,-0.43999 -2.89283,-2.74908 -2.19206,-4.4409 0.19242,-0.46455 2.70615,-3.2903 5.58606,-6.27944 l 5.23619,-5.43481 0.003,-7.40833 c 0.001,-4.07459 0.0776,-8.0309 0.16895,-8.79182 0.13543,-1.12746 0.0877,-1.4136 -0.25803,-1.54626 -0.38547,-0.14792 -8.90414,4.23917 -16.71379,8.60756 l -2.64584,1.47997 -0.13229,6.87215 c -0.0959,4.98187 -0.22791,7.03979 -0.47991,7.48162 -0.88744,1.55595 -3.78062,2.18632 -5.13714,1.11928 -1.03879,-0.81711 -1.22422,-1.69797 -1.32213,-6.28043 -0.0504,-2.3579 -0.17994,-4.37543 -0.2879,-4.48339 -0.21531,-0.21531 -2.20642,0.8058 -7.457293,3.82438 -3.668601,2.10898 -5.026673,2.50633 -6.491853,1.89943 -0.961849,-0.39841 -1.842522,-1.95357 -1.842522,-3.25366 0,-1.83483 0.7521,-2.44619 7.216105,-5.8657 3.305983,-1.74889 6.011363,-3.32454 6.011963,-3.50145 6.1e-4,-0.1769 -1.64548,-1.15713 -3.657963,-2.17828 -2.012484,-1.02115 -3.878075,-2.09865 -4.145759,-2.39444 -0.29626,-0.32736 -0.532035,-1.08449 -0.602564,-1.93498 -0.101293,-1.22145 -0.02666,-1.5032 0.593383,-2.24007 0.947465,-1.126 2.381143,-1.55332 3.745179,-1.11629 0.564363,0.18082 3.335974,1.44525 6.159124,2.80984 2.82316,1.36459 5.32718,2.48108 5.5645,2.48108 0.23732,0 3.04715,-1.4129 6.24407,-3.13977 3.19692,-1.72687 7.12227,-3.84129 8.723,-4.69871 1.63162,-0.87397 2.91042,-1.72609 2.91042,-1.93933 0,-0.32656 -9.54665,-5.75324 -16.15998,-9.18595 l -1.87248,-0.97192 -4.7421,2.32126 c -5.72651,2.80314 -7.009995,3.32692 -8.152358,3.32692 -1.300452,0 -2.608351,-0.99686 -3.025728,-2.30617 -0.313781,-0.98433 -0.296006,-1.22305 0.169419,-2.27522 0.499173,-1.12847 0.679958,-1.25654 4.51775,-3.20045 2.198777,-1.11372 3.997767,-2.12779 3.997767,-2.25348 0,-0.12569 -2.41101,-1.5094 -5.357811,-3.07492 -2.946797,-1.56552 -5.800904,-3.12504 -6.342461,-3.4656 -3.231968,-2.03242 -1.766758,-6.86388 1.931153,-6.36789 0.591687,0.0794 3.20391,1.3432 6.350779,3.07261 2.94011,1.61578 5.4478,2.93779 5.57263,2.93779 0.27106,0 0.29222,-0.33929 0.32999,-5.29167 0.0327,-4.29328 0.22863,-4.88654 1.87068,-5.66575 1.7702,-0.84001 3.79475,-0.21418 4.68658,1.44873 0.43158,0.80474 0.48346,1.61683 0.48346,7.56831 v 6.66684 l 0.72761,0.51421 c 0.40018,0.28282 1.73963,1.02098 2.97656,1.64037 1.23692,0.61939 5.18506,2.71782 8.77363,4.66319 3.58858,1.94536 6.65444,3.53702 6.81302,3.53702 0.35636,0 0.32534,0.84205 0.32496,-8.82267 -2.7e-4,-6.52132 -0.0732,-8.24916 -0.36289,-8.59895 -0.65433,-0.79006 -6.64358,-7.49779 -8.59361,-9.62454 -2.18732,-2.38554 -2.51541,-3.28217 -1.77327,-4.84612 0.59854,-1.26131 2.32738,-2.10909 3.77493,-1.85113 0.78807,0.14043 1.48649,0.71518 3.80744,3.13322 2.29637,2.39243 2.89259,2.885 3.10401,2.56435 0.16504,-0.2503 0.20196,-2.49766 0.1,-6.08541 -0.18267,-6.42538 -0.0251,-7.50247 1.25504,-8.57965 1.67498,-1.4094 4.74731,-0.59476 5.44987,1.44506 0.20894,0.60663 0.32085,3.08791 0.33073,7.33303 0.008,3.52888 0.10298,6.41614 0.21059,6.41614 0.10761,0 1.50659,-1.35874 3.10885,-3.01941 2.44821,-2.53747 3.07392,-3.04661 3.92012,-3.18976 1.96783,-0.33289 4.00814,1.32549 4.00814,3.25785 0,1.22682 -0.0107,1.2408 -5.41529,7.08805 -2.40294,2.59975 -4.69489,5.15477 -5.09323,5.67783 l -0.72425,0.95101 v 8.37555 c 0,7.24214 0.0533,8.37555 0.39408,8.37555 0.21675,0 1.5562,-0.63951 2.97657,-1.42114 1.42036,-0.78162 5.49951,-2.99952 9.06477,-4.92867 3.56526,-1.92914 6.64656,-3.6608 6.84732,-3.84813 0.29004,-0.27063 0.37157,-1.71767 0.39688,-7.04373 0.0312,-6.57005 0.0441,-6.72027 0.64801,-7.56701 1.16563,-1.63424 3.0524,-2.09072 4.81192,-1.1642 1.60662,0.84601 1.84708,1.70399 1.84754,6.59215 3.2e-4,3.34849 0.0764,4.29948 0.34395,4.29948 0.18895,0 2.18325,-1.02857 4.43177,-2.28572 6.32576,-3.5367 6.86266,-3.79977 7.75312,-3.79871 1.16613,10e-4 2.51504,0.9023 2.96562,1.98068 0.50542,1.20963 0.48061,1.81395 -0.12275,2.98981 -0.57013,1.11111 -1.15655,1.49126 -7.83067,5.07615 -2.47385,1.32879 -4.66284,2.57881 -4.86441,2.77782 -0.31103,0.3071 -0.0508,0.52245 1.71979,1.42317 4.81514,2.44951 5.54357,2.89643 6.14455,3.7699 0.92752,1.34807 0.68624,2.96283 -0.62183,4.16159 -1.55163,1.42195 -2.57843,1.20573 -8.93932,-1.88237 -2.88107,-1.39871 -5.45667,-2.61242 -5.72356,-2.69712 -0.50661,-0.1608 -2.2225,0.71461 -12.78449,6.52233 -3.16508,1.74038 -5.75361,3.30524 -5.75229,3.47746 10e-4,0.17222 1.99562,1.35542 4.43177,2.62933 2.43616,1.27391 6.44225,3.38727 8.90244,4.69635 2.46019,1.30909 4.67364,2.38016 4.91878,2.38016 0.24513,0 2.93036,-1.19063 5.96716,-2.64584 6.04138,-2.89497 7.09213,-3.15129 8.75694,-2.13615 1.42484,0.86881 1.79417,3.21791 0.74208,4.71997 -0.2239,0.31967 -1.68184,1.23619 -3.23985,2.0367 -3.98689,2.04848 -4.68018,2.50144 -4.34372,2.83789 0.15371,0.15372 2.87374,1.66876 6.04451,3.36677 5.53951,2.96652 5.78943,3.1347 6.38876,4.29931 0.75476,1.46665 0.62328,2.65915 -0.43264,3.92398 -0.55437,0.66405 -0.96921,0.87571 -1.92813,0.98379 -1.15592,0.13029 -1.52037,-0.0208 -6.76024,-2.80352 -3.04616,-1.61768 -5.67987,-2.94124 -5.8527,-2.94124 -0.22953,0 -0.31423,1.1446 -0.31423,4.24648 0,4.73817 -0.18544,5.44452 -1.66649,6.34757 -0.96325,0.58733 -2.64666,0.67108 -3.61723,0.17997 -0.35944,-0.18188 -0.92498,-0.73351 -1.25677,-1.22585 -0.57057,-0.84668 -0.60513,-1.16181 -0.63784,-5.81698 -0.019,-2.707 -0.10831,-5.79378 -0.19844,-6.85951 l -0.16385,-1.93771 -9.39271,-4.99976 c -5.16599,-2.74987 -9.54154,-5.00329 -9.72344,-5.00761 -0.25819,-0.006 -0.33073,1.94755 -0.33073,8.90813 v 8.91598 l 5.25634,5.30538 c 5.32334,5.37301 6.12075,6.38484 6.12075,7.76665 0,1.87571 -2.14503,3.47938 -4.15066,3.10312 -0.82239,-0.15428 -1.48511,-0.69624 -3.7593,-3.07429 -1.51851,-1.58784 -2.91981,-2.88698 -3.11402,-2.88698 -0.28577,0 -0.35318,1.3749 -0.35352,7.20989 -3.6e-4,6.3413 -0.0561,7.3192 -0.46302,8.11713 -0.91197,1.78849 -2.91179,2.52672 -4.55465,1.68133 z"
       id="path3"
       inkscape:export-filename="path3.png"
       inkscape:export-xdpi="96"
       inkscape:export-ydpi="96" /></g></svg>
